<svg width="5370" height="1000" viewBox="0 0 5370 1000" fill="none" xmlns="http://www.w3.org/2000/svg">
<g clip-path="url(#clip0_5_293)">
<path d="M1292.7 735.6C1278.23 735.6 1267.03 731.633 1259.1 723.7C1251.63 715.3 1247.9 703.867 1247.9 689.4V282C1247.9 267.067 1251.87 255.867 1259.8 248.4C1267.73 240.467 1278.93 236.5 1293.4 236.5H1462.1C1516.23 236.5 1558 249.567 1587.4 275.7C1616.8 301.367 1631.5 337.533 1631.5 384.2C1631.5 414.533 1624.73 440.667 1611.2 462.6C1598.13 484.533 1579 501.333 1553.8 513C1528.6 524.667 1498.03 530.5 1462.1 530.5L1468.4 520H1491.5C1510.63 520 1527.2 524.667 1541.2 534C1555.67 543.333 1568.27 558.033 1579 578.1L1631.5 675.4C1637.1 685.2 1639.67 694.767 1639.2 704.1C1638.73 713.433 1635.23 721.133 1628.7 727.2C1622.17 732.8 1612.6 735.6 1600 735.6C1587.4 735.6 1577.13 733.033 1569.2 727.9C1561.27 722.3 1554.27 713.9 1548.2 702.7L1477.5 572.5C1469.1 556.633 1459.07 546.133 1447.4 541C1436.2 535.4 1421.73 532.6 1404 532.6H1337.5V689.4C1337.5 703.867 1333.77 715.3 1326.3 723.7C1318.83 731.633 1307.63 735.6 1292.7 735.6ZM1337.5 466.1H1446.7C1478.9 466.1 1503.17 459.567 1519.5 446.5C1536.3 432.967 1544.7 412.9 1544.7 386.3C1544.7 360.167 1536.3 340.567 1519.5 327.5C1503.17 313.967 1478.9 307.2 1446.7 307.2H1337.5V466.1ZM1866.6 737C1831.13 737 1800.33 729.767 1774.2 715.3C1748.06 700.833 1727.76 680.3 1713.3 653.7C1698.83 626.633 1691.6 594.9 1691.6 558.5C1691.6 530.967 1695.56 506.467 1703.5 485C1711.9 463.067 1723.8 444.4 1739.2 429C1754.6 413.133 1773.03 401.233 1794.5 393.3C1815.96 384.9 1840 380.7 1866.6 380.7C1902.06 380.7 1932.86 387.933 1959 402.4C1985.13 416.867 2005.43 437.4 2019.9 464C2034.36 490.6 2041.6 522.1 2041.6 558.5C2041.6 586.033 2037.4 610.767 2029 632.7C2021.06 654.633 2009.4 673.533 1994 689.4C1978.6 704.8 1960.16 716.7 1938.7 725.1C1917.23 733.033 1893.2 737 1866.6 737ZM1866.6 670.5C1883.86 670.5 1899.03 666.3 1912.1 657.9C1925.16 649.5 1935.2 637.133 1942.2 620.8C1949.66 604 1953.4 583.233 1953.4 558.5C1953.4 521.167 1945.46 493.4 1929.6 475.2C1913.73 456.533 1892.73 447.2 1866.6 447.2C1849.33 447.2 1834.16 451.4 1821.1 459.8C1808.03 467.733 1797.76 480.1 1790.3 496.9C1783.3 513.233 1779.8 533.767 1779.8 558.5C1779.8 595.367 1787.73 623.367 1803.6 642.5C1819.46 661.167 1840.46 670.5 1866.6 670.5ZM2272.02 737C2236.08 737 2204.82 729.767 2178.22 715.3C2151.62 700.367 2131.08 679.367 2116.62 652.3C2102.15 625.233 2094.92 593.5 2094.92 557.1C2094.92 529.567 2098.88 505.067 2106.82 483.6C2115.22 461.667 2127.12 443.233 2142.52 428.3C2157.92 412.9 2176.58 401.233 2198.52 393.3C2220.45 384.9 2244.95 380.7 2272.02 380.7C2287.42 380.7 2303.98 382.8 2321.72 387C2339.92 391.2 2356.95 398.2 2372.82 408C2380.28 412.667 2385.18 418.267 2387.52 424.8C2389.85 431.333 2390.32 438.1 2388.92 445.1C2387.52 451.633 2384.48 457.467 2379.82 462.6C2375.62 467.267 2370.25 470.3 2363.72 471.7C2357.18 472.633 2349.95 471 2342.02 466.8C2331.75 460.733 2321.25 456.3 2310.52 453.5C2299.78 450.233 2289.52 448.6 2279.72 448.6C2264.32 448.6 2250.78 451.167 2239.12 456.3C2227.45 460.967 2217.42 467.967 2209.02 477.3C2201.08 486.167 2195.02 497.367 2190.82 510.9C2186.62 524.433 2184.52 540.067 2184.52 557.8C2184.52 592.333 2192.68 619.633 2209.02 639.7C2225.82 659.3 2249.38 669.1 2279.72 669.1C2289.52 669.1 2299.55 667.7 2309.82 664.9C2320.55 662.1 2331.28 657.667 2342.02 651.6C2349.95 647.4 2356.95 646 2363.02 647.4C2369.55 648.8 2374.92 652.067 2379.12 657.2C2383.32 661.867 2385.88 667.7 2386.82 674.7C2387.75 681.233 2386.82 687.767 2384.02 694.3C2381.68 700.833 2377.02 706.2 2370.02 710.4C2354.62 719.733 2338.28 726.5 2321.02 730.7C2303.75 734.9 2287.42 737 2272.02 737ZM2487.39 735.6C2473.39 735.6 2462.66 731.867 2455.19 724.4C2447.73 716.467 2443.99 705.267 2443.99 690.8V275C2443.99 260.533 2447.73 249.567 2455.19 242.1C2462.66 234.633 2473.39 230.9 2487.39 230.9C2501.39 230.9 2512.13 234.633 2519.59 242.1C2527.53 249.567 2531.49 260.533 2531.49 275V533.3H2532.89L2648.39 411.5C2657.73 402.167 2665.89 394.933 2672.89 389.8C2679.89 384.667 2689.46 382.1 2701.59 382.1C2713.73 382.1 2722.83 385.367 2728.89 391.9C2735.43 397.967 2738.69 405.433 2738.69 414.3C2738.69 423.167 2734.49 432.033 2726.09 440.9L2604.29 569.7V533.3L2737.99 677.5C2746.39 686.367 2750.13 695.467 2749.19 704.8C2748.73 713.667 2744.99 721.133 2737.99 727.2C2730.99 732.8 2722.13 735.6 2711.39 735.6C2698.33 735.6 2687.83 733.033 2679.89 727.9C2672.43 722.767 2664.03 715.067 2654.69 704.8L2532.89 577.4H2531.49V690.8C2531.49 720.667 2516.79 735.6 2487.39 735.6ZM2981.15 737C2942.42 737 2909.05 729.767 2881.05 715.3C2853.05 700.833 2831.35 680.3 2815.95 653.7C2801.02 627.1 2793.55 595.6 2793.55 559.2C2793.55 523.733 2800.78 492.7 2815.25 466.1C2830.18 439.5 2850.48 418.733 2876.15 403.8C2902.28 388.4 2931.92 380.7 2965.05 380.7C2989.32 380.7 3011.02 384.667 3030.15 392.6C3049.75 400.533 3066.32 411.967 3079.85 426.9C3093.85 441.833 3104.35 460.033 3111.35 481.5C3118.82 502.5 3122.55 526.3 3122.55 552.9C3122.55 561.3 3119.52 567.833 3113.45 572.5C3107.85 576.7 3099.68 578.8 3088.95 578.8H2864.25V528.4H3060.95L3049.75 538.9C3049.75 517.433 3046.48 499.467 3039.95 485C3033.88 470.533 3024.78 459.567 3012.65 452.1C3000.98 444.167 2986.28 440.2 2968.55 440.2C2948.95 440.2 2932.15 444.867 2918.15 454.2C2904.62 463.067 2894.12 475.9 2886.65 492.7C2879.65 509.033 2876.15 528.633 2876.15 551.5V556.4C2876.15 594.667 2885.02 623.367 2902.75 642.5C2920.95 661.167 2947.55 670.5 2982.55 670.5C2994.68 670.5 3008.22 669.1 3023.15 666.3C3038.55 663.033 3053.02 657.667 3066.55 650.2C3076.35 644.6 3084.98 642.267 3092.45 643.2C3099.92 643.667 3105.75 646.233 3109.95 650.9C3114.62 655.567 3117.42 661.4 3118.35 668.4C3119.28 674.933 3117.88 681.7 3114.15 688.7C3110.88 695.7 3105.05 701.767 3096.65 706.9C3080.32 717.167 3061.42 724.867 3039.95 730C3018.95 734.667 2999.35 737 2981.15 737ZM3347.28 737C3316.94 737 3291.51 731.867 3270.98 721.6C3250.91 711.333 3235.98 696.4 3226.18 676.8C3216.38 656.733 3211.48 632 3211.48 602.6V453.5H3175.08C3163.88 453.5 3155.24 450.7 3149.18 445.1C3143.11 439.033 3140.08 430.867 3140.08 420.6C3140.08 409.867 3143.11 401.7 3149.18 396.1C3155.24 390.5 3163.88 387.7 3175.08 387.7H3211.48V324C3211.48 309.533 3215.21 298.567 3222.68 291.1C3230.61 283.633 3241.58 279.9 3255.58 279.9C3269.58 279.9 3280.31 283.633 3287.78 291.1C3295.24 298.567 3298.98 309.533 3298.98 324V387.7H3373.18C3384.38 387.7 3393.01 390.5 3399.08 396.1C3405.14 401.7 3408.18 409.867 3408.18 420.6C3408.18 430.867 3405.14 439.033 3399.08 445.1C3393.01 450.7 3384.38 453.5 3373.18 453.5H3298.98V597.7C3298.98 620.1 3303.88 636.9 3313.68 648.1C3323.48 659.3 3339.34 664.9 3361.28 664.9C3369.21 664.9 3376.21 664.2 3382.28 662.8C3388.34 661.4 3393.71 660.467 3398.38 660C3403.98 659.533 3408.64 661.4 3412.38 665.6C3416.11 669.333 3417.98 677.267 3417.98 689.4C3417.98 698.733 3416.34 707.133 3413.08 714.6C3410.28 721.6 3404.91 726.5 3396.98 729.3C3390.91 731.167 3382.98 732.8 3373.18 734.2C3363.38 736.067 3354.74 737 3347.28 737ZM3702.37 735.6C3687.9 735.6 3676.7 731.633 3668.77 723.7C3661.3 715.3 3657.57 703.867 3657.57 689.4V282C3657.57 267.067 3661.53 255.867 3669.47 248.4C3677.4 240.467 3688.6 236.5 3703.07 236.5H3871.77C3925.9 236.5 3967.67 250.033 3997.07 277.1C4026.47 304.167 4041.17 341.967 4041.17 390.5C4041.17 439.033 4026.47 477.067 3997.07 504.6C3967.67 531.667 3925.9 545.2 3871.77 545.2H3747.17V689.4C3747.17 703.867 3743.43 715.3 3735.97 723.7C3728.5 731.633 3717.3 735.6 3702.37 735.6ZM3747.17 474.5H3857.77C3889.5 474.5 3913.53 467.5 3929.87 453.5C3946.2 439.033 3954.37 418.033 3954.37 390.5C3954.37 362.967 3946.2 342.2 3929.87 328.2C3913.53 314.2 3889.5 307.2 3857.77 307.2H3747.17V474.5ZM4224.24 737C4195.77 737 4172.21 731.867 4153.54 721.6C4134.87 710.867 4120.87 695 4111.54 674C4102.67 653 4098.24 626.867 4098.24 595.6V426.2C4098.24 411.267 4101.97 400.3 4109.44 393.3C4116.91 385.833 4127.64 382.1 4141.64 382.1C4155.64 382.1 4166.37 385.833 4173.84 393.3C4181.77 400.3 4185.74 411.267 4185.74 426.2V597C4185.74 621.267 4190.64 639.233 4200.44 650.9C4210.24 662.567 4225.87 668.4 4247.34 668.4C4270.67 668.4 4289.81 660.467 4304.74 644.6C4319.67 628.267 4327.14 606.8 4327.14 580.2V426.2C4327.14 411.267 4330.87 400.3 4338.34 393.3C4345.81 385.833 4356.54 382.1 4370.54 382.1C4384.54 382.1 4395.27 385.833 4402.74 393.3C4410.67 400.3 4414.64 411.267 4414.64 426.2V690.8C4414.64 720.667 4400.41 735.6 4371.94 735.6C4358.41 735.6 4347.91 731.867 4340.44 724.4C4332.97 716.467 4329.24 705.267 4329.24 690.8V637.6L4339.04 658.6C4329.24 683.8 4314.31 703.167 4294.24 716.7C4274.64 730.233 4251.31 737 4224.24 737ZM4631.01 737C4610.94 737 4589.71 734.9 4567.31 730.7C4544.91 726.5 4524.84 719.267 4507.11 709C4499.64 704.333 4494.28 698.967 4491.01 692.9C4488.21 686.367 4487.04 680.067 4487.51 674C4488.44 667.467 4490.78 661.867 4494.51 657.2C4498.71 652.533 4503.84 649.5 4509.91 648.1C4516.44 646.7 4523.44 647.867 4530.91 651.6C4549.58 660.467 4567.08 666.767 4583.41 670.5C4599.74 673.767 4615.84 675.4 4631.71 675.4C4654.11 675.4 4670.68 671.667 4681.41 664.2C4692.61 656.267 4698.21 646 4698.21 633.4C4698.21 622.667 4694.48 614.5 4687.01 608.9C4680.01 602.833 4669.28 598.4 4654.81 595.6L4584.81 582.3C4555.88 576.7 4533.71 566.2 4518.31 550.8C4503.38 534.933 4495.91 514.633 4495.91 489.9C4495.91 467.5 4501.98 448.133 4514.11 431.8C4526.71 415.467 4543.98 402.867 4565.91 394C4587.84 385.133 4613.04 380.7 4641.51 380.7C4662.04 380.7 4681.18 383.033 4698.91 387.7C4717.11 391.9 4734.61 398.667 4751.41 408C4758.41 411.733 4763.08 416.633 4765.41 422.7C4768.21 428.767 4768.91 435.067 4767.51 441.6C4766.11 447.667 4763.31 453.267 4759.11 458.4C4754.91 463.067 4749.54 466.1 4743.01 467.5C4736.94 468.433 4729.94 467.033 4722.01 463.3C4707.54 455.833 4693.54 450.467 4680.01 447.2C4666.94 443.933 4654.34 442.3 4642.21 442.3C4619.34 442.3 4602.31 446.267 4591.11 454.2C4580.38 462.133 4575.01 472.633 4575.01 485.7C4575.01 495.5 4578.28 503.667 4584.81 510.2C4591.34 516.733 4601.38 521.167 4614.91 523.5L4684.91 536.8C4715.24 542.4 4738.11 552.667 4753.51 567.6C4769.38 582.533 4777.31 602.6 4777.31 627.8C4777.31 661.867 4764.01 688.7 4737.41 708.3C4710.81 727.433 4675.34 737 4631.01 737ZM4890.91 735.6C4876.91 735.6 4866.17 731.867 4858.71 724.4C4851.24 716.467 4847.51 705.267 4847.51 690.8V275C4847.51 260.533 4851.24 249.567 4858.71 242.1C4866.17 234.633 4876.91 230.9 4890.91 230.9C4904.91 230.9 4915.64 234.633 4923.11 242.1C4931.04 249.567 4935.01 260.533 4935.01 275V456.3H4925.21C4935.47 431.567 4951.34 412.9 4972.81 400.3C4994.74 387.233 5019.47 380.7 5047.01 380.7C5074.54 380.7 5097.17 385.833 5114.91 396.1C5132.64 406.367 5145.94 422 5154.81 443C5163.67 463.533 5168.11 489.667 5168.11 521.4V690.8C5168.11 705.267 5164.37 716.467 5156.91 724.4C5149.44 731.867 5138.71 735.6 5124.71 735.6C5110.71 735.6 5099.74 731.867 5091.81 724.4C5084.34 716.467 5080.61 705.267 5080.61 690.8V525.6C5080.61 499 5075.47 479.633 5065.21 467.5C5055.41 455.367 5040.01 449.3 5019.01 449.3C4993.34 449.3 4972.81 457.467 4957.41 473.8C4942.47 489.667 4935.01 510.9 4935.01 537.5V690.8C4935.01 720.667 4920.31 735.6 4890.91 735.6Z" fill="white"/>
<g clip-path="url(#clip1_5_293)">
<rect width="1000" height="1000" rx="50" fill="white"/>
<rect y="500" width="500" height="500" fill="#0D83DD"/>
<path d="M382.059 775.844C338.635 877.408 387.528 999.55 497.984 999.996C547.06 1000.19 596.255 993.169 643.953 978.829C756.189 945.087 853.006 872.991 917.496 775.131C981.985 677.271 1010.05 559.867 996.788 443.421C983.526 326.975 929.78 218.888 844.937 138.036C760.094 57.1836 649.544 8.70418 532.595 1.06381C415.646 -6.57656 299.729 27.1077 205.088 96.2342C110.446 165.361 43.0945 265.536 14.795 379.267C2.76818 427.6 -1.88065 477.076 0.680236 526.086C6.44407 636.392 130.799 679.348 230.153 631.084L499.999 500L382.059 775.844Z" fill="white"/>
<g clip-path="url(#clip2_5_293)" filter="url(#filter0_d_5_293)">
<path d="M252.342 702.191L215.019 718.457C254.585 667.264 297.541 598.725 340.944 563.927C365.737 544.05 398.595 556.341 419.538 580.24C446.775 598.297 460.758 631.581 440.023 656.839C403.21 701.68 332.673 747.627 281.036 785.855L295.934 749.975L279.479 764.698C247.787 793.053 210.631 814.63 170.296 828.101C188.39 789.373 211.15 753.002 238.069 719.797L252.342 702.191Z" fill="#FF7B01"/>
<path d="M291.498 672.086L250.922 681.744C278.819 644.842 307.195 601.588 337.398 577.752C359.742 560.117 389.758 568.621 413.279 584.653C430.881 609.404 440.066 641.521 421.231 665.346C398.895 693.6 360.877 719.749 324.797 745.869L327.099 710.908C296.141 736.664 262.81 759.426 227.554 778.887L216.287 785.107L218.541 781.053C239.826 742.789 264.228 706.343 291.498 672.086Z" fill="url(#paint0_radial_5_293)"/>
<g filter="url(#filter1_d_5_293)">
<g filter="url(#filter2_i_5_293)">
<path d="M302.695 509.286C258.147 495.85 172.941 571.864 172.941 571.864C172.941 571.864 203.347 494.083 262.39 435.04L270.225 427.204C317.482 379.947 390.022 369.083 449.066 400.391L353.96 538.63C353.96 538.63 347.243 522.721 302.695 509.286Z" fill="#DD670D"/>
</g>
<g filter="url(#filter3_i_5_293)">
<path d="M491.139 698.437C504.574 742.984 428.56 828.191 428.56 828.191C428.56 828.191 506.342 797.785 565.385 738.742L573.22 730.907C620.477 683.65 631.342 611.11 600.034 552.066L461.794 647.171C461.794 647.171 477.704 653.889 491.139 698.437Z" fill="#DD670D"/>
</g>
<rect x="345.901" y="552.276" width="145" height="16" transform="rotate(45 345.901 552.276)" fill="#CECECE"/>
<g filter="url(#filter4_i_5_293)">
<path d="M780.509 352.119L714.453 286.062L714.716 286.325L648.332 219.941C648.332 219.941 637 225.172 618.089 234.171C485.938 297.06 397.517 419.973 339.026 554.102L392.983 608.059L392.719 607.795L446.676 661.752C580.805 603.261 703.718 514.84 766.607 382.69C775.606 363.778 780.509 352.119 780.509 352.119Z" fill="white"/>
</g>
<g filter="url(#filter5_i_5_293)">
<path d="M782.413 352.236C804.789 286.02 834.235 208.49 816.306 184.197C792.013 166.268 714.585 197.734 648.369 220.11L782.413 352.236Z" fill="#DD670D"/>
</g>
<path d="M392.57 607.43L529.042 470.958C529.042 522.138 513.9 572.174 485.523 614.766L457.049 657.503L446.964 661.824L392.57 607.43Z" fill="url(#paint1_radial_5_293)"/>
<path d="M295.58 704.187L418.571 548.972C449.393 510.075 491.979 479.924 528.925 470.842C519.843 507.788 489.692 550.374 450.795 581.196L295.58 704.187Z" fill="#DD670D"/>
<circle cx="604.939" cy="396.242" r="62.5" transform="rotate(45 604.939 396.242)" fill="#B6DCFA" stroke="#0D83DD" stroke-width="20" stroke-linejoin="round"/>
<path d="M778.224 357.54L643.028 222.344L636.304 225.519L775.042 364.257L778.224 357.54Z" fill="#DD670D"/>
</g>
</g>
<circle cx="596.874" cy="380.499" r="27" transform="rotate(45 596.874 380.499)" fill="white" fill-opacity="0.5"/>
</g>
</g>
<defs>
<filter id="filter0_d_5_293" x="166" y="170" width="669" height="669" filterUnits="userSpaceOnUse" color-interpolation-filters="sRGB">
<feFlood flood-opacity="0" result="BackgroundImageFix"/>
<feColorMatrix in="SourceAlpha" type="matrix" values="0 0 0 0 0 0 0 0 0 0 0 0 0 0 0 0 0 0 127 0" result="hardAlpha"/>
<feOffset dy="4"/>
<feGaussianBlur stdDeviation="2"/>
<feComposite in2="hardAlpha" operator="out"/>
<feColorMatrix type="matrix" values="0 0 0 0 0 0 0 0 0 0 0 0 0 0 0 0 0 0 0.25 0"/>
<feBlend mode="normal" in2="BackgroundImageFix" result="effect1_dropShadow_5_293"/>
<feBlend mode="normal" in="SourceGraphic" in2="effect1_dropShadow_5_293" result="shape"/>
</filter>
<filter id="filter1_d_5_293" x="162.941" y="172.894" width="668.901" height="669.297" filterUnits="userSpaceOnUse" color-interpolation-filters="sRGB">
<feFlood flood-opacity="0" result="BackgroundImageFix"/>
<feColorMatrix in="SourceAlpha" type="matrix" values="0 0 0 0 0 0 0 0 0 0 0 0 0 0 0 0 0 0 127 0" result="hardAlpha"/>
<feOffset dy="4"/>
<feGaussianBlur stdDeviation="5"/>
<feComposite in2="hardAlpha" operator="out"/>
<feColorMatrix type="matrix" values="0 0 0 0 0 0 0 0 0 0 0 0 0 0 0 0 0 0 0.1 0"/>
<feBlend mode="normal" in2="BackgroundImageFix" result="effect1_dropShadow_5_293"/>
<feBlend mode="normal" in="SourceGraphic" in2="effect1_dropShadow_5_293" result="shape"/>
</filter>
<filter id="filter2_i_5_293" x="172.941" y="378.652" width="280.125" height="193.213" filterUnits="userSpaceOnUse" color-interpolation-filters="sRGB">
<feFlood flood-opacity="0" result="BackgroundImageFix"/>
<feBlend mode="normal" in="SourceGraphic" in2="BackgroundImageFix" result="shape"/>
<feColorMatrix in="SourceAlpha" type="matrix" values="0 0 0 0 0 0 0 0 0 0 0 0 0 0 0 0 0 0 127 0" result="hardAlpha"/>
<feOffset dx="8" dy="-4"/>
<feGaussianBlur stdDeviation="2"/>
<feComposite in2="hardAlpha" operator="arithmetic" k2="-1" k3="1"/>
<feColorMatrix type="matrix" values="0 0 0 0 0 0 0 0 0 0 0 0 0 0 0 0 0 0 0.1 0"/>
<feBlend mode="normal" in2="shape" result="effect1_innerShadow_5_293"/>
</filter>
<filter id="filter3_i_5_293" x="424.56" y="548.066" width="193.213" height="280.125" filterUnits="userSpaceOnUse" color-interpolation-filters="sRGB">
<feFlood flood-opacity="0" result="BackgroundImageFix"/>
<feBlend mode="normal" in="SourceGraphic" in2="BackgroundImageFix" result="shape"/>
<feColorMatrix in="SourceAlpha" type="matrix" values="0 0 0 0 0 0 0 0 0 0 0 0 0 0 0 0 0 0 127 0" result="hardAlpha"/>
<feOffset dx="-7" dy="-5"/>
<feGaussianBlur stdDeviation="2"/>
<feComposite in2="hardAlpha" operator="arithmetic" k2="-1" k3="1"/>
<feColorMatrix type="matrix" values="0 0 0 0 0 0 0 0 0 0 0 0 0 0 0 0 0 0 0.1 0"/>
<feBlend mode="normal" in2="shape" result="effect1_innerShadow_5_293"/>
</filter>
<filter id="filter4_i_5_293" x="334.026" y="219.941" width="446.483" height="469.811" filterUnits="userSpaceOnUse" color-interpolation-filters="sRGB">
<feFlood flood-opacity="0" result="BackgroundImageFix"/>
<feBlend mode="normal" in="SourceGraphic" in2="BackgroundImageFix" result="shape"/>
<feColorMatrix in="SourceAlpha" type="matrix" values="0 0 0 0 0 0 0 0 0 0 0 0 0 0 0 0 0 0 127 0" result="hardAlpha"/>
<feOffset dx="-5" dy="28"/>
<feGaussianBlur stdDeviation="40"/>
<feComposite in2="hardAlpha" operator="arithmetic" k2="-1" k3="1"/>
<feColorMatrix type="matrix" values="0 0 0 0 0 0 0 0 0 0 0 0 0 0 0 0 0 0 0.25 0"/>
<feBlend mode="normal" in2="shape" result="effect1_innerShadow_5_293"/>
</filter>
<filter id="filter5_i_5_293" x="632.369" y="178.894" width="189.473" height="185.343" filterUnits="userSpaceOnUse" color-interpolation-filters="sRGB">
<feFlood flood-opacity="0" result="BackgroundImageFix"/>
<feBlend mode="normal" in="SourceGraphic" in2="BackgroundImageFix" result="shape"/>
<feColorMatrix in="SourceAlpha" type="matrix" values="0 0 0 0 0 0 0 0 0 0 0 0 0 0 0 0 0 0 127 0" result="hardAlpha"/>
<feOffset dx="-16" dy="12"/>
<feGaussianBlur stdDeviation="22.5"/>
<feComposite in2="hardAlpha" operator="arithmetic" k2="-1" k3="1"/>
<feColorMatrix type="matrix" values="0 0 0 0 0 0 0 0 0 0 0 0 0 0 0 0 0 0 0.25 0"/>
<feBlend mode="normal" in2="shape" result="effect1_innerShadow_5_293"/>
</filter>
<radialGradient id="paint0_radial_5_293" cx="0" cy="0" r="1" gradientUnits="userSpaceOnUse" gradientTransform="translate(406.951 588.069) rotate(134.244) scale(330.354 105.485)">
<stop stop-color="#FFF171"/>
<stop offset="1" stop-color="#FF7B01"/>
</radialGradient>
<radialGradient id="paint1_radial_5_293" cx="0" cy="0" r="1" gradientUnits="userSpaceOnUse" gradientTransform="translate(490.16 460.129) rotate(99.5233) scale(189.599 78.8224)">
<stop/>
<stop offset="0.0001" stop-opacity="0.1"/>
<stop offset="1" stop-opacity="0"/>
</radialGradient>
<clipPath id="clip0_5_293">
<rect width="5370" height="1000" fill="white"/>
</clipPath>
<clipPath id="clip1_5_293">
<rect width="1000" height="1000" rx="50" fill="white"/>
</clipPath>
<clipPath id="clip2_5_293">
<rect width="661" height="661" fill="white" transform="translate(170 170)"/>
</clipPath>
</defs>
</svg>
