<svg width="4697" height="1000" viewBox="0 0 4697 1000" fill="none" xmlns="http://www.w3.org/2000/svg">
<g clip-path="url(#clip0_5_293)">
<path d="M1278.6 701.8C1266.2 701.8 1256.6 698.4 1249.8 691.6C1243.4 684.4 1240.2 674.6 1240.2 662.2V313C1240.2 300.2 1243.6 290.6 1250.4 284.2C1257.2 277.4 1266.8 274 1279.2 274H1423.8C1470.2 274 1506 285.2 1531.2 307.6C1556.4 329.6 1569 360.6 1569 400.6C1569 426.6 1563.2 449 1551.6 467.8C1540.4 486.6 1524 501 1502.4 511C1480.8 521 1454.6 526 1423.8 526L1429.2 517H1449C1465.4 517 1479.6 521 1491.6 529C1504 537 1514.8 549.6 1524 566.8L1569 650.2C1573.8 658.6 1576 666.8 1575.6 674.8C1575.2 682.8 1572.2 689.4 1566.6 694.6C1561 699.4 1552.8 701.8 1542 701.8C1531.2 701.8 1522.4 699.6 1515.6 695.2C1508.8 690.4 1502.8 683.2 1497.6 673.6L1437 562C1429.8 548.4 1421.2 539.4 1411.2 535C1401.6 530.2 1389.2 527.8 1374 527.8H1317V662.2C1317 674.6 1313.8 684.4 1307.4 691.6C1301 698.4 1291.4 701.8 1278.6 701.8ZM1317 470.8H1410.6C1438.2 470.8 1459 465.2 1473 454C1487.4 442.4 1494.6 425.2 1494.6 402.4C1494.6 380 1487.4 363.2 1473 352C1459 340.4 1438.2 334.6 1410.6 334.6H1317V470.8ZM1770.51 703C1740.11 703 1713.71 696.8 1691.31 684.4C1668.91 672 1651.51 654.4 1639.11 631.6C1626.71 608.4 1620.51 581.2 1620.51 550C1620.51 526.4 1623.91 505.4 1630.71 487C1637.91 468.2 1648.11 452.2 1661.31 439C1674.51 425.4 1690.31 415.2 1708.71 408.4C1727.11 401.2 1747.71 397.6 1770.51 397.6C1800.91 397.6 1827.31 403.8 1849.71 416.2C1872.11 428.6 1889.51 446.2 1901.91 469C1914.31 491.8 1920.51 518.8 1920.51 550C1920.51 573.6 1916.91 594.8 1909.71 613.6C1902.91 632.4 1892.91 648.6 1879.71 662.2C1866.51 675.4 1850.71 685.6 1832.31 692.8C1813.91 699.6 1793.31 703 1770.51 703ZM1770.51 646C1785.31 646 1798.31 642.4 1809.51 635.2C1820.71 628 1829.31 617.4 1835.31 603.4C1841.71 589 1844.91 571.2 1844.91 550C1844.91 518 1838.11 494.2 1824.51 478.6C1810.91 462.6 1792.91 454.6 1770.51 454.6C1755.71 454.6 1742.71 458.2 1731.51 465.4C1720.31 472.2 1711.51 482.8 1705.11 497.2C1699.11 511.2 1696.11 528.8 1696.11 550C1696.11 581.6 1702.91 605.6 1716.51 622C1730.11 638 1748.11 646 1770.51 646ZM2118.01 703C2087.21 703 2060.41 696.8 2037.61 684.4C2014.81 671.6 1997.21 653.6 1984.81 630.4C1972.41 607.2 1966.21 580 1966.21 548.8C1966.21 525.2 1969.61 504.2 1976.41 485.8C1983.61 467 1993.81 451.2 2007.01 438.4C2020.21 425.2 2036.21 415.2 2055.01 408.4C2073.81 401.2 2094.81 397.6 2118.01 397.6C2131.21 397.6 2145.41 399.4 2160.61 403C2176.21 406.6 2190.81 412.6 2204.41 421C2210.81 425 2215.01 429.8 2217.01 435.4C2219.01 441 2219.41 446.8 2218.21 452.8C2217.01 458.4 2214.41 463.4 2210.41 467.8C2206.81 471.8 2202.21 474.4 2196.61 475.6C2191.01 476.4 2184.81 475 2178.01 471.4C2169.21 466.2 2160.21 462.4 2151.01 460C2141.81 457.2 2133.01 455.8 2124.61 455.8C2111.41 455.8 2099.81 458 2089.81 462.4C2079.81 466.4 2071.21 472.4 2064.01 480.4C2057.21 488 2052.01 497.6 2048.41 509.2C2044.81 520.8 2043.01 534.2 2043.01 549.4C2043.01 579 2050.01 602.4 2064.01 619.6C2078.41 636.4 2098.61 644.8 2124.61 644.8C2133.01 644.8 2141.61 643.6 2150.41 641.2C2159.61 638.8 2168.81 635 2178.01 629.8C2184.81 626.2 2190.81 625 2196.01 626.2C2201.61 627.4 2206.21 630.2 2209.81 634.6C2213.41 638.6 2215.61 643.6 2216.41 649.6C2217.21 655.2 2216.41 660.8 2214.01 666.4C2212.01 672 2208.01 676.6 2202.01 680.2C2188.81 688.2 2174.81 694 2160.01 697.6C2145.21 701.2 2131.21 703 2118.01 703ZM2302.62 701.8C2290.62 701.8 2281.42 698.6 2275.02 692.2C2268.62 685.4 2265.42 675.8 2265.42 663.4V307C2265.42 294.6 2268.62 285.2 2275.02 278.8C2281.42 272.4 2290.62 269.2 2302.62 269.2C2314.62 269.2 2323.82 272.4 2330.22 278.8C2337.02 285.2 2340.42 294.6 2340.42 307V528.4H2341.62L2440.62 424C2448.62 416 2455.62 409.8 2461.62 405.4C2467.62 401 2475.82 398.8 2486.22 398.8C2496.62 398.8 2504.42 401.6 2509.62 407.2C2515.22 412.4 2518.02 418.8 2518.02 426.4C2518.02 434 2514.42 441.6 2507.22 449.2L2402.82 559.6V528.4L2517.42 652C2524.62 659.6 2527.82 667.4 2527.02 675.4C2526.62 683 2523.42 689.4 2517.42 694.6C2511.42 699.4 2503.82 701.8 2494.62 701.8C2483.42 701.8 2474.42 699.6 2467.62 695.2C2461.22 690.8 2454.02 684.2 2446.02 675.4L2341.62 566.2H2340.42V663.4C2340.42 689 2327.82 701.8 2302.62 701.8ZM2725.84 703C2692.64 703 2664.04 696.8 2640.04 684.4C2616.04 672 2597.44 654.4 2584.24 631.6C2571.44 608.8 2565.04 581.8 2565.04 550.6C2565.04 520.2 2571.24 493.6 2583.64 470.8C2596.44 448 2613.84 430.2 2635.84 417.4C2658.24 404.2 2683.64 397.6 2712.04 397.6C2732.84 397.6 2751.44 401 2767.84 407.8C2784.64 414.6 2798.84 424.4 2810.44 437.2C2822.44 450 2831.44 465.6 2837.44 484C2843.84 502 2847.04 522.4 2847.04 545.2C2847.04 552.4 2844.44 558 2839.24 562C2834.44 565.6 2827.44 567.4 2818.24 567.4H2625.64V524.2H2794.24L2784.64 533.2C2784.64 514.8 2781.84 499.4 2776.24 487C2771.04 474.6 2763.24 465.2 2752.84 458.8C2742.84 452 2730.24 448.6 2715.04 448.6C2698.24 448.6 2683.84 452.6 2671.84 460.6C2660.24 468.2 2651.24 479.2 2644.84 493.6C2638.84 507.6 2635.84 524.4 2635.84 544V548.2C2635.84 581 2643.44 605.6 2658.64 622C2674.24 638 2697.04 646 2727.04 646C2737.44 646 2749.04 644.8 2761.84 642.4C2775.04 639.6 2787.44 635 2799.04 628.6C2807.44 623.8 2814.84 621.8 2821.24 622.6C2827.64 623 2832.64 625.2 2836.24 629.2C2840.24 633.2 2842.64 638.2 2843.44 644.2C2844.24 649.8 2843.04 655.6 2839.84 661.6C2837.04 667.6 2832.04 672.8 2824.84 677.2C2810.84 686 2794.64 692.6 2776.24 697C2758.24 701 2741.44 703 2725.84 703ZM3039.67 703C3013.67 703 2991.87 698.6 2974.27 689.8C2957.07 681 2944.27 668.2 2935.87 651.4C2927.47 634.2 2923.27 613 2923.27 587.8V460H2892.07C2882.47 460 2875.07 457.6 2869.87 452.8C2864.67 447.6 2862.07 440.6 2862.07 431.8C2862.07 422.6 2864.67 415.6 2869.87 410.8C2875.07 406 2882.47 403.6 2892.07 403.6H2923.27V349C2923.27 336.6 2926.47 327.2 2932.87 320.8C2939.67 314.4 2949.07 311.2 2961.07 311.2C2973.07 311.2 2982.27 314.4 2988.67 320.8C2995.07 327.2 2998.27 336.6 2998.27 349V403.6H3061.87C3071.47 403.6 3078.87 406 3084.07 410.8C3089.27 415.6 3091.87 422.6 3091.87 431.8C3091.87 440.6 3089.27 447.6 3084.07 452.8C3078.87 457.6 3071.47 460 3061.87 460H2998.27V583.6C2998.27 602.8 3002.47 617.2 3010.87 626.8C3019.27 636.4 3032.87 641.2 3051.67 641.2C3058.47 641.2 3064.47 640.6 3069.67 639.4C3074.87 638.2 3079.47 637.4 3083.47 637C3088.27 636.6 3092.27 638.2 3095.47 641.8C3098.67 645 3100.27 651.8 3100.27 662.2C3100.27 670.2 3098.87 677.4 3096.07 683.8C3093.67 689.8 3089.07 694 3082.27 696.4C3077.07 698 3070.27 699.4 3061.87 700.6C3053.47 702.2 3046.07 703 3039.67 703ZM3344.03 701.8C3331.63 701.8 3322.03 698.4 3315.23 691.6C3308.83 684.4 3305.63 674.6 3305.63 662.2V313C3305.63 300.2 3309.03 290.6 3315.83 284.2C3322.63 277.4 3332.23 274 3344.63 274H3489.23C3535.63 274 3571.43 285.6 3596.63 308.8C3621.83 332 3634.43 364.4 3634.43 406C3634.43 447.6 3621.83 480.2 3596.63 503.8C3571.43 527 3535.63 538.6 3489.23 538.6H3382.43V662.2C3382.43 674.6 3379.23 684.4 3372.83 691.6C3366.43 698.4 3356.83 701.8 3344.03 701.8ZM3382.43 478H3477.23C3504.43 478 3525.03 472 3539.03 460C3553.03 447.6 3560.03 429.6 3560.03 406C3560.03 382.4 3553.03 364.6 3539.03 352.6C3525.03 340.6 3504.43 334.6 3477.23 334.6H3382.43V478ZM3791.35 703C3766.95 703 3746.75 698.6 3730.75 689.8C3714.75 680.6 3702.75 667 3694.75 649C3687.15 631 3683.35 608.6 3683.35 581.8V436.6C3683.35 423.8 3686.55 414.4 3692.95 408.4C3699.35 402 3708.55 398.8 3720.55 398.8C3732.55 398.8 3741.75 402 3748.15 408.4C3754.95 414.4 3758.35 423.8 3758.35 436.6V583C3758.35 603.8 3762.55 619.2 3770.95 629.2C3779.35 639.2 3792.75 644.2 3811.15 644.2C3831.15 644.2 3847.55 637.4 3860.35 623.8C3873.15 609.8 3879.55 591.4 3879.55 568.6V436.6C3879.55 423.8 3882.75 414.4 3889.15 408.4C3895.55 402 3904.75 398.8 3916.75 398.8C3928.75 398.8 3937.95 402 3944.35 408.4C3951.15 414.4 3954.55 423.8 3954.55 436.6V663.4C3954.55 689 3942.35 701.8 3917.95 701.8C3906.35 701.8 3897.35 698.6 3890.95 692.2C3884.55 685.4 3881.35 675.8 3881.35 663.4V617.8L3889.75 635.8C3881.35 657.4 3868.55 674 3851.35 685.6C3834.55 697.2 3814.55 703 3791.35 703ZM4140.01 703C4122.81 703 4104.61 701.2 4085.41 697.6C4066.21 694 4049.01 687.8 4033.81 679C4027.41 675 4022.81 670.4 4020.01 665.2C4017.61 659.6 4016.61 654.2 4017.01 649C4017.81 643.4 4019.81 638.6 4023.01 634.6C4026.61 630.6 4031.01 628 4036.21 626.8C4041.81 625.6 4047.81 626.6 4054.21 629.8C4070.21 637.4 4085.21 642.8 4099.21 646C4113.21 648.8 4127.01 650.2 4140.61 650.2C4159.81 650.2 4174.01 647 4183.21 640.6C4192.81 633.8 4197.61 625 4197.61 614.2C4197.61 605 4194.41 598 4188.01 593.2C4182.01 588 4172.81 584.2 4160.41 581.8L4100.41 570.4C4075.61 565.6 4056.61 556.6 4043.41 543.4C4030.61 529.8 4024.21 512.4 4024.21 491.2C4024.21 472 4029.41 455.4 4039.81 441.4C4050.61 427.4 4065.41 416.6 4084.21 409C4103.01 401.4 4124.61 397.6 4149.01 397.6C4166.61 397.6 4183.01 399.6 4198.21 403.6C4213.81 407.2 4228.81 413 4243.21 421C4249.21 424.2 4253.21 428.4 4255.21 433.6C4257.61 438.8 4258.21 444.2 4257.01 449.8C4255.81 455 4253.41 459.8 4249.81 464.2C4246.21 468.2 4241.61 470.8 4236.01 472C4230.81 472.8 4224.81 471.6 4218.01 468.4C4205.61 462 4193.61 457.4 4182.01 454.6C4170.81 451.8 4160.01 450.4 4149.61 450.4C4130.01 450.4 4115.41 453.8 4105.81 460.6C4096.61 467.4 4092.01 476.4 4092.01 487.6C4092.01 496 4094.81 503 4100.41 508.6C4106.01 514.2 4114.61 518 4126.21 520L4186.21 531.4C4212.21 536.2 4231.81 545 4245.01 557.8C4258.61 570.6 4265.41 587.8 4265.41 609.4C4265.41 638.6 4254.01 661.6 4231.21 678.4C4208.41 694.8 4178.01 703 4140.01 703ZM4362.78 701.8C4350.78 701.8 4341.58 698.6 4335.18 692.2C4328.78 685.4 4325.58 675.8 4325.58 663.4V307C4325.58 294.6 4328.78 285.2 4335.18 278.8C4341.58 272.4 4350.78 269.2 4362.78 269.2C4374.78 269.2 4383.98 272.4 4390.38 278.8C4397.18 285.2 4400.58 294.6 4400.58 307V462.4H4392.18C4400.98 441.2 4414.58 425.2 4432.98 414.4C4451.78 403.2 4472.98 397.6 4496.58 397.6C4520.18 397.6 4539.58 402 4554.78 410.8C4569.98 419.6 4581.38 433 4588.98 451C4596.58 468.6 4600.38 491 4600.38 518.2V663.4C4600.38 675.8 4597.18 685.4 4590.78 692.2C4584.38 698.6 4575.18 701.8 4563.18 701.8C4551.18 701.8 4541.78 698.6 4534.98 692.2C4528.58 685.4 4525.38 675.8 4525.38 663.4V521.8C4525.38 499 4520.98 482.4 4512.18 472C4503.78 461.6 4490.58 456.4 4472.58 456.4C4450.58 456.4 4432.98 463.4 4419.78 477.4C4406.98 491 4400.58 509.2 4400.58 532V663.4C4400.58 689 4387.98 701.8 4362.78 701.8Z" fill="white"/>
<g clip-path="url(#clip1_5_293)">
<rect width="1000" height="1000" rx="50" fill="#0D83DD"/>
<path d="M507.852 1250.23C656.18 1248.68 800.716 1203.17 923.184 1119.48C1045.65 1035.78 1140.55 917.646 1195.88 780.014C1251.21 642.383 1264.48 491.436 1234.02 346.261C1203.56 201.086 1130.73 68.204 1024.75 -35.5818C918.771 -139.368 784.394 -209.396 638.613 -236.81C492.833 -264.225 342.196 -247.795 205.753 -189.598C69.3105 -131.401 -46.811 -34.0509 -127.927 90.1417C-209.042 214.334 -251.509 359.792 -249.956 508.119L500.002 500.27L507.852 1250.23Z" fill="white"/>
<path d="M382.059 775.844C338.635 877.408 387.528 999.55 497.984 999.996C547.06 1000.19 596.255 993.169 643.953 978.829C756.189 945.087 853.006 872.991 917.496 775.131C981.985 677.271 1010.05 559.867 996.788 443.421C983.526 326.975 929.78 218.888 844.937 138.036C760.094 57.1836 649.544 8.70418 532.595 1.06381C415.646 -6.57656 299.729 27.1077 205.088 96.2342C110.446 165.361 43.0945 265.536 14.795 379.267C2.76818 427.6 -1.88065 477.076 0.680236 526.086C6.44407 636.392 130.799 679.348 230.153 631.084L499.999 500L382.059 775.844Z" fill="white"/>
<g clip-path="url(#clip2_5_293)" filter="url(#filter0_d_5_293)">
<path d="M252.342 702.191L215.019 718.457C254.585 667.264 297.541 598.725 340.944 563.927C365.737 544.05 398.595 556.341 419.538 580.24C446.775 598.297 460.758 631.581 440.023 656.839C403.21 701.68 332.673 747.627 281.036 785.855L295.934 749.975L279.479 764.698C247.787 793.053 210.631 814.63 170.296 828.101C188.39 789.373 211.15 753.002 238.069 719.797L252.342 702.191Z" fill="#FF7B01"/>
<path d="M291.498 672.086L250.922 681.744C278.819 644.842 307.195 601.588 337.398 577.752C359.742 560.117 389.758 568.621 413.279 584.653C430.881 609.404 440.066 641.521 421.231 665.346C398.895 693.6 360.877 719.749 324.797 745.869L327.099 710.908C296.141 736.664 262.81 759.426 227.554 778.887L216.287 785.107L218.541 781.053C239.826 742.789 264.228 706.343 291.498 672.086Z" fill="url(#paint0_radial_5_293)"/>
<g filter="url(#filter1_d_5_293)">
<g filter="url(#filter2_i_5_293)">
<path d="M302.695 509.286C258.147 495.85 172.941 571.864 172.941 571.864C172.941 571.864 203.347 494.083 262.39 435.04L270.225 427.204C317.482 379.947 390.022 369.083 449.066 400.391L353.96 538.63C353.96 538.63 347.243 522.721 302.695 509.286Z" fill="#DD670D"/>
</g>
<g filter="url(#filter3_i_5_293)">
<path d="M491.139 698.437C504.574 742.984 428.56 828.191 428.56 828.191C428.56 828.191 506.342 797.785 565.385 738.742L573.22 730.907C620.477 683.65 631.342 611.11 600.034 552.066L461.794 647.171C461.794 647.171 477.704 653.889 491.139 698.437Z" fill="#DD670D"/>
</g>
<rect x="345.901" y="552.276" width="145" height="16" transform="rotate(45 345.901 552.276)" fill="#CECECE"/>
<g filter="url(#filter4_i_5_293)">
<path d="M780.509 352.119L714.453 286.062L714.716 286.325L648.332 219.941C648.332 219.941 637 225.172 618.089 234.171C485.938 297.06 397.517 419.973 339.026 554.102L392.983 608.059L392.719 607.795L446.676 661.752C580.805 603.261 703.718 514.84 766.607 382.69C775.606 363.778 780.509 352.119 780.509 352.119Z" fill="white"/>
</g>
<g filter="url(#filter5_i_5_293)">
<path d="M782.413 352.236C804.789 286.02 834.235 208.49 816.306 184.197C792.013 166.268 714.585 197.734 648.369 220.11L782.413 352.236Z" fill="#DD670D"/>
</g>
<path d="M392.57 607.43L529.042 470.958C529.042 522.138 513.9 572.174 485.523 614.766L457.049 657.503L446.964 661.824L392.57 607.43Z" fill="url(#paint1_radial_5_293)"/>
<path d="M295.58 704.187L418.571 548.972C449.393 510.075 491.979 479.924 528.925 470.842C519.843 507.788 489.692 550.374 450.795 581.196L295.58 704.187Z" fill="#DD670D"/>
<circle cx="604.939" cy="396.242" r="62.5" transform="rotate(45 604.939 396.242)" fill="#B6DCFA" stroke="#0D83DD" stroke-width="20" stroke-linejoin="round"/>
<path d="M778.224 357.54L643.028 222.344L636.304 225.519L775.042 364.257L778.224 357.54Z" fill="#DD670D"/>
</g>
</g>
<circle cx="596.874" cy="380.499" r="27" transform="rotate(45 596.874 380.499)" fill="white" fill-opacity="0.5"/>
</g>
</g>
<defs>
<filter id="filter0_d_5_293" x="166" y="170" width="669" height="669" filterUnits="userSpaceOnUse" color-interpolation-filters="sRGB">
<feFlood flood-opacity="0" result="BackgroundImageFix"/>
<feColorMatrix in="SourceAlpha" type="matrix" values="0 0 0 0 0 0 0 0 0 0 0 0 0 0 0 0 0 0 127 0" result="hardAlpha"/>
<feOffset dy="4"/>
<feGaussianBlur stdDeviation="2"/>
<feComposite in2="hardAlpha" operator="out"/>
<feColorMatrix type="matrix" values="0 0 0 0 0 0 0 0 0 0 0 0 0 0 0 0 0 0 0.25 0"/>
<feBlend mode="normal" in2="BackgroundImageFix" result="effect1_dropShadow_5_293"/>
<feBlend mode="normal" in="SourceGraphic" in2="effect1_dropShadow_5_293" result="shape"/>
</filter>
<filter id="filter1_d_5_293" x="162.941" y="172.894" width="668.901" height="669.297" filterUnits="userSpaceOnUse" color-interpolation-filters="sRGB">
<feFlood flood-opacity="0" result="BackgroundImageFix"/>
<feColorMatrix in="SourceAlpha" type="matrix" values="0 0 0 0 0 0 0 0 0 0 0 0 0 0 0 0 0 0 127 0" result="hardAlpha"/>
<feOffset dy="4"/>
<feGaussianBlur stdDeviation="5"/>
<feComposite in2="hardAlpha" operator="out"/>
<feColorMatrix type="matrix" values="0 0 0 0 0 0 0 0 0 0 0 0 0 0 0 0 0 0 0.1 0"/>
<feBlend mode="normal" in2="BackgroundImageFix" result="effect1_dropShadow_5_293"/>
<feBlend mode="normal" in="SourceGraphic" in2="effect1_dropShadow_5_293" result="shape"/>
</filter>
<filter id="filter2_i_5_293" x="172.941" y="378.652" width="280.125" height="193.213" filterUnits="userSpaceOnUse" color-interpolation-filters="sRGB">
<feFlood flood-opacity="0" result="BackgroundImageFix"/>
<feBlend mode="normal" in="SourceGraphic" in2="BackgroundImageFix" result="shape"/>
<feColorMatrix in="SourceAlpha" type="matrix" values="0 0 0 0 0 0 0 0 0 0 0 0 0 0 0 0 0 0 127 0" result="hardAlpha"/>
<feOffset dx="8" dy="-4"/>
<feGaussianBlur stdDeviation="2"/>
<feComposite in2="hardAlpha" operator="arithmetic" k2="-1" k3="1"/>
<feColorMatrix type="matrix" values="0 0 0 0 0 0 0 0 0 0 0 0 0 0 0 0 0 0 0.1 0"/>
<feBlend mode="normal" in2="shape" result="effect1_innerShadow_5_293"/>
</filter>
<filter id="filter3_i_5_293" x="424.56" y="548.066" width="193.213" height="280.125" filterUnits="userSpaceOnUse" color-interpolation-filters="sRGB">
<feFlood flood-opacity="0" result="BackgroundImageFix"/>
<feBlend mode="normal" in="SourceGraphic" in2="BackgroundImageFix" result="shape"/>
<feColorMatrix in="SourceAlpha" type="matrix" values="0 0 0 0 0 0 0 0 0 0 0 0 0 0 0 0 0 0 127 0" result="hardAlpha"/>
<feOffset dx="-7" dy="-5"/>
<feGaussianBlur stdDeviation="2"/>
<feComposite in2="hardAlpha" operator="arithmetic" k2="-1" k3="1"/>
<feColorMatrix type="matrix" values="0 0 0 0 0 0 0 0 0 0 0 0 0 0 0 0 0 0 0.1 0"/>
<feBlend mode="normal" in2="shape" result="effect1_innerShadow_5_293"/>
</filter>
<filter id="filter4_i_5_293" x="334.026" y="219.941" width="446.483" height="469.811" filterUnits="userSpaceOnUse" color-interpolation-filters="sRGB">
<feFlood flood-opacity="0" result="BackgroundImageFix"/>
<feBlend mode="normal" in="SourceGraphic" in2="BackgroundImageFix" result="shape"/>
<feColorMatrix in="SourceAlpha" type="matrix" values="0 0 0 0 0 0 0 0 0 0 0 0 0 0 0 0 0 0 127 0" result="hardAlpha"/>
<feOffset dx="-5" dy="28"/>
<feGaussianBlur stdDeviation="40"/>
<feComposite in2="hardAlpha" operator="arithmetic" k2="-1" k3="1"/>
<feColorMatrix type="matrix" values="0 0 0 0 0 0 0 0 0 0 0 0 0 0 0 0 0 0 0.25 0"/>
<feBlend mode="normal" in2="shape" result="effect1_innerShadow_5_293"/>
</filter>
<filter id="filter5_i_5_293" x="632.369" y="178.894" width="189.473" height="185.343" filterUnits="userSpaceOnUse" color-interpolation-filters="sRGB">
<feFlood flood-opacity="0" result="BackgroundImageFix"/>
<feBlend mode="normal" in="SourceGraphic" in2="BackgroundImageFix" result="shape"/>
<feColorMatrix in="SourceAlpha" type="matrix" values="0 0 0 0 0 0 0 0 0 0 0 0 0 0 0 0 0 0 127 0" result="hardAlpha"/>
<feOffset dx="-16" dy="12"/>
<feGaussianBlur stdDeviation="22.5"/>
<feComposite in2="hardAlpha" operator="arithmetic" k2="-1" k3="1"/>
<feColorMatrix type="matrix" values="0 0 0 0 0 0 0 0 0 0 0 0 0 0 0 0 0 0 0.25 0"/>
<feBlend mode="normal" in2="shape" result="effect1_innerShadow_5_293"/>
</filter>
<radialGradient id="paint0_radial_5_293" cx="0" cy="0" r="1" gradientUnits="userSpaceOnUse" gradientTransform="translate(406.951 588.069) rotate(134.244) scale(330.354 105.485)">
<stop stop-color="#FFF171"/>
<stop offset="1" stop-color="#FF7B01"/>
</radialGradient>
<radialGradient id="paint1_radial_5_293" cx="0" cy="0" r="1" gradientUnits="userSpaceOnUse" gradientTransform="translate(490.16 460.129) rotate(99.5233) scale(189.599 78.8224)">
<stop/>
<stop offset="0.0001" stop-opacity="0.1"/>
<stop offset="1" stop-opacity="0"/>
</radialGradient>
<clipPath id="clip0_5_293">
<rect width="4697" height="1000" fill="white"/>
</clipPath>
<clipPath id="clip1_5_293">
<rect width="1000" height="1000" rx="50" fill="white"/>
</clipPath>
<clipPath id="clip2_5_293">
<rect width="661" height="661" fill="white" transform="translate(170 170)"/>
</clipPath>
</defs>
</svg>
